/* XPM */
static char * 8_6_xpm[] = {
"64 64 182 2",
"  	c #F8F8F8",
". 	c #F5F5F5",
"+ 	c #172A3A",
"@ 	c #1A2C3E",
"# 	c #050F1A",
"$ 	c #172837",
"% 	c #243443",
"& 	c #F7F7F7",
"* 	c #020D19",
"= 	c #010D1A",
"- 	c #273848",
"; 	c #162634",
"> 	c #06121D",
", 	c #253646",
"' 	c #020F1C",
") 	c #29394A",
"! 	c #223240",
"~ 	c #091520",
"{ 	c #020A14",
"] 	c #223243",
"^ 	c #192A3C",
"/ 	c #030D16",
"( 	c #051321",
"_ 	c #020F1F",
": 	c #2C3D4F",
"< 	c #F2F2F2",
"[ 	c #2A3B4D",
"} 	c #142331",
"| 	c #10212F",
"1 	c #091A29",
"2 	c #03080F",
"3 	c #13202B",
"4 	c #1D2D3B",
"5 	c #1E2F3F",
"6 	c #2E3F51",
"7 	c #101C28",
"8 	c #2F4054",
"9 	c #1A2A39",
"0 	c #F4F4F4",
"a 	c #0E1924",
"b 	c #F6F6F6",
"c 	c #0C1D2C",
"d 	c #D2D2D2",
"e 	c #2F4356",
"f 	c #1A2F40",
"g 	c #283745",
"h 	c #314659",
"i 	c #21303E",
"j 	c #061626",
"k 	c #09121D",
"l 	c #122433",
"m 	c #F0F0F0",
"n 	c #0A1723",
"o 	c #020307",
"p 	c #D7D7D7",
"q 	c #364D60",
"r 	c #1A2835",
"s 	c #32485C",
"t 	c #435869",
"u 	c #395062",
"v 	c #334250",
"w 	c #4F5C6A",
"x 	c #1C3143",
"y 	c #EBEBEB",
"z 	c #EEEEEE",
"A 	c #3D5465",
"B 	c #E6E6E6",
"C 	c #FFFFFF",
"D 	c #E8E9E9",
"E 	c #DCDDDD",
"F 	c #DFE0E0",
"G 	c #485D6E",
"H 	c #354554",
"I 	c #344B5D",
"J 	c #DADADA",
"K 	c #E3E3E3",
"L 	c #2E3C4A",
"M 	c #394856",
"N 	c #D4D5D6",
"O 	c #FDFDFD",
"P 	c #586470",
"Q 	c #014A71",
"R 	c #4E6272",
"S 	c #0A0F17",
"T 	c #006497",
"U 	c #00699D",
"V 	c #BCBEBF",
"W 	c #006896",
"X 	c #B6B7B9",
"Y 	c #014D76",
"Z 	c #A3A3A4",
"` 	c #3D4B5A",
" .	c #C2C4C6",
"..	c #949596",
"+.	c #11161F",
"@.	c #2F607A",
"#.	c #FBFBFB",
"$.	c #717B86",
"%.	c #005F8D",
"&.	c #76818C",
"*.	c #5C6976",
"=.	c #03537B",
"-.	c #1A242F",
";.	c #9C9C9D",
">.	c #C8CACC",
",.	c #AFB0B0",
"'.	c #015884",
").	c #6A7782",
"!.	c #041F32",
"~.	c #556877",
"{.	c #A9AAAA",
"].	c #43505F",
"^.	c #848485",
"/.	c #034568",
"(.	c #8C8C8E",
"_.	c #6E6E6F",
":.	c #CDCFD0",
"<.	c #033E5E",
"[.	c #626E7B",
"}.	c #043652",
"|.	c #042E47",
"1.	c #55707E",
"2.	c #04263D",
"3.	c #7C8893",
"4.	c #5F7380",
"5.	c #595C61",
"6.	c #747577",
"7.	c #44464A",
"8.	c #636467",
"9.	c #1E1E26",
"0.	c #7C7D7E",
"a.	c #4C4E52",
"b.	c #27292E",
"c.	c #4B5764",
"d.	c #666B72",
"e.	c #85909A",
"f.	c #486B7C",
"g.	c #0A5072",
"h.	c #2D3137",
"i.	c #3D6478",
"j.	c #08718E",
"k.	c #969EA6",
"l.	c #A4AAB1",
"m.	c #145676",
"n.	c #555658",
"o.	c #8D97A1",
"p.	c #ADB3B8",
"q.	c #9DA4AB",
"r.	c #35677E",
"s.	c #30576D",
"t.	c #35383D",
"u.	c #3C3E43",
"v.	c #166D87",
"w.	c #1F5E79",
"x.	c #CB000D",
"y.	c #9D8854",
"z.	c #8C7742",
"A.	c #214F67",
"B.	c #6C560E",
"C.	c #1C4156",
"D.	c #B9A470",
"E.	c #497887",
"F.	c #C1B79B",
"G.	c #AC9764",
"H.	c #7C672A",
"I.	c #F9F9F6",
"J.	c #F8FAFA",
"K.	c #C9B37F",
"L.	c #D9D0BC",
"M.	c #DDC68E",
"N.	c #5B4105",
"O.	c #32768B",
"P.	c #B4CAD3",
"Q.	c #F2E0A7",
"R.	c #81B0C4",
"S.	c #F9F0C3",
"T.	c #FCF9DB",
"U.	c #A30013",
"V.	c #66071C",
"W.	c #FDFCF1",
"X.	c #4A92B0",
"Y.	c #83785E",
"                                                                                                                                ",
"                                                                                                                                ",
"                                                                                                                                ",
"                                                                                                                                ",
"                                                                                                                                ",
"                                                                                                                                ",
"                                                                                                                                ",
"                                                                                                                                ",
"                                                                                                                                ",
"                                                                                                                                ",
"                                                                                                                                ",
"                                                                                                                                ",
"                                                                                                                                ",
"                                                                                                                                ",
"                                                                                                                                ",
"                                                                                                                                ",
"                                                                                                                                ",
"                                                                                                                                ",
"                                                                                                                                ",
"                                                                                                                                ",
"                                                                                                                                ",
"                                                                                                                                ",
"                                                L.F.L.L.L.V {.G.Y.Y.Y.^.^.^... .                                                ",
"                                              b &.A P A w ].g g r 3 -.7 7 } 7 8..                                               ",
"                                              X 8 8 [.$.&.d.5.8.d.5.d.n.6.5.l ; {.                                              ",
"                                            p u R &.*.$.3.[.6 $ 1 j 1 3 3 r g % @ :.                                            ",
"                                            ..8 *.[.u R ).t ! l 1 ' > a 1 l % g $ ^.                                            ",
"                                            (.: G i.w.A R A C.Y Q /.<.2.<.Y C.! $ 0.                                            ",
"                                            3.: t i.A.@.R i.m.|.}.Y Q <.Y /.C.5 + 0.                                            ",
"                                            3.: t A s.q ~.@.m.}.<.'.Y /.}.=.+ 5 $ 0.                                            ",
"                                            ^.- t u A.I *.t A.j j Q <.}.2./.+ 5 9 0.                                            ",
"                                            3.[ A s.s u [.[.A.2.!.A.~.<.<.<.C.5 9 0.                                            ",
"                                            3.: A u A.@.*.i.C./.Q <./.1 Q /.x 4 ^ 0.                                            ",
"                                            ^.[ A q [ @.3.P C.Q =.Q q 3.r.j | 5 ^ 0.                                            ",
"                                            3.[ A I ) X X k.o.<.|.1.p.1.:.h.| 5 + 0.                                            ",
"                                            ^.) A I d.V X ~.p.|.}.&.p.e.B _.| 4 ^ 0.                                            ",
"                                            ^.) u s L {.F ).X |.|...X n.^.~ | 4 + 0.                                            ",
"                                            ^.) u s , ;.:.:.a.t.9 ;.p.(.6.~ } 5 ^ 0.                                            ",
"                                            3.) q h , c.X y 5.U.V.;.X ..N 7.} 5 @ 0.                                            ",
"                                            ^.- q h % ,.Z  .V ( ' ...... .(.} 5 ^ 0.                                            ",
"                                            ^.- q h 6...` ..K h.= (.,.(.V ..| 5 ^ 0.                                            ",
"                                            ^.- I e &.Z M ..>.t.= ^.X ..:.6.| 5 ^ 0.                                            ",
"                                            ^.- I e v ,.$.Z Z ( = 8.{.;.V > 3 f ^ 0.                                            ",
"                                            ^.- s 8 % v ).0.| _ = ' a.d.9.> 3 @ ^ 0.                                            ",
"                                            3.- s w ..6.3.d.5.8.a.n.n.5.b.d.3 @ ^ 0.                                            ",
"                                            ^.- h l.,.,.V ,.{.....,.Z {.(.Z 3 @ ^ 0.                                            ",
"                                            ^.- h 3.X Z Z Z ....^.(.;.{.;.X n.@ ^ 0.                                            ",
"                                            ^., e c.^.0.(.6.8.0.n.0.8._._._.b.9 9 0.                                            ",
"                                            ^., e ` P w P 5.u.n.7.a.u.7.a.a.-.$ ; 0.                                            ",
"                                            ^., e : ! , ) d.6.(.(.a.n.# # # a $ + 0.                                            ",
"                                            ^., 8 [ ! % - 4 1 ' = * * * # # a ; $ 0.                                            ",
"                                            ^.% : [ ! % , 9 1 ' = * * / { # a } $ 0.                                            ",
"                                            3.% 6 ) 4 i % $ 1 ' * * ' # # # a ; $ 0.                                            ",
"                                            ^.% 6 ) 4 5 i ; n ' * ' ' # # > 7 ; $ 0.                                            ",
"                                            ^.% : ) 5 4 5 } n ' * * # > # > 7 ; ; 0.                                            ",
"                                            ^.% : ) 5 5 5 3 n ' * ' # # > ~ 7 } } 0.b b . . . b b b & &                         ",
"                                            ^.i - - 4 4 9 } n / * ' ' # k ~ 7 } ; 0.z y y y z z < < . b & &                     ",
"                                            ^.4 - 4 ; ; } a 6.(.0.6./ > ~ ~ a 3 3 _.J p J E F B y m < . & &                     ",
"                                            ,.a.; ; 3 } 3 > ' * { { / / / # # k h.(.d d d J F B z < 0 b &                       ",
"                                            & E V ,.Z ;...(.(.^.^.6._.8.n.a.8.6.,.d N p E K y m < . & &                         ",
"                                                D d d :.>.>.V ,.Z ;...(.^.0.^.V K B B y z < 0 b &                               ",
"                                                            & b b . . < < < < < < < 0 b b &                                     ",
"                                                                    & & & & & &                                                 ",
"                                                                                                                                "};
