/* XPM */
static char * wall_stone_xpm[] = {
"16 16 3 1",
"  c None",
". c #808080",
"+ c #C0C0C0",
"                ",
"                ",
"  .+..+..+..+.. ",
"  +..+..+..+..+.",
"  .+..+..+..+.. ",
"  +..+..+..+..+.",
"  .+..+..+..+.. ",
"  +..+..+..+..+.",
"                ",
"                ",
"                ",
"                ",
"                ",
"                ",
"                ",
"                ",
"                "
};
